<svg xmlns="http://www.w3.org/2000/svg" width="60" height="70" viewBox="0 0 60 70" fill="none"><rect width="60" height="50" rx="8" fill="#25DC8C"/><circle cx="29.5" cy="47.5" r="22.5" fill="#F5F9FF"/><path d="M30 38c-5.514 0-10 4.486-10 10s4.486 10 10 10 10-4.486 10-10-4.486-10-10-10Zm0 18c-4.411 0-8-3.589-8-8s3.589-8 8-8 8 3.589 8 8-3.589 8-8 8Z" fill="#F7155E"/><path d="M26.5 48a1.5 1.5 0 1 0 0-3 1.5 1.5 0 0 0 0 3Zm6.993-.014a1.493 1.493 0 1 0 0-2.986 1.493 1.493 0 0 0 0 2.986ZM30 54c4 0 5-4 5-4H25s1 4 5 4Z" fill="#F7155E"/></svg>