<svg xmlns="http://www.w3.org/2000/svg" width="60" height="70" viewBox="0 0 60 70" fill="none">
<rect width="60" height="50" rx="8" fill="#25DC8C"/>
<circle cx="29.5" cy="47.5" r="22.5" fill="#F5F9FF"/>
<path d="M32 39.269C32 38.568 31.432 38 30.731 38H29.27C28.568 38 28 38.568 28 39.269C28 39.847 27.604 40.343 27.065 40.555C26.98 40.589 26.895 40.625 26.812 40.661C26.281 40.891 25.65 40.821 25.24 40.412C25.002 40.1742 24.6794 40.0406 24.343 40.0406C24.0066 40.0406 23.684 40.1742 23.446 40.412L22.412 41.446C22.1742 41.684 22.0406 42.0066 22.0406 42.343C22.0406 42.6794 22.1742 43.002 22.412 43.24C22.822 43.65 22.892 44.28 22.66 44.812C22.6235 44.8957 22.5885 44.9801 22.555 45.065C22.343 45.604 21.847 46 21.269 46C20.568 46 20 46.568 20 47.269V48.731C20 49.432 20.568 50 21.269 50C21.847 50 22.343 50.396 22.555 50.935C22.589 51.02 22.625 51.105 22.66 51.188C22.891 51.719 22.821 52.35 22.412 52.76C22.1742 52.998 22.0406 53.3206 22.0406 53.657C22.0406 53.9934 22.1742 54.316 22.412 54.554L23.446 55.588C23.684 55.8258 24.0066 55.9594 24.343 55.9594C24.6794 55.9594 25.002 55.8258 25.24 55.588C25.65 55.178 26.28 55.108 26.812 55.339C26.895 55.376 26.98 55.411 27.065 55.445C27.604 55.657 28 56.153 28 56.731C28 57.432 28.568 58 29.269 58H30.731C31.432 58 32 57.432 32 56.731C32 56.153 32.396 55.657 32.935 55.444C33.02 55.411 33.105 55.376 33.188 55.34C33.719 55.108 34.35 55.179 34.759 55.588C34.8768 55.7059 35.0168 55.7994 35.1708 55.8632C35.3248 55.927 35.4898 55.9599 35.6565 55.9599C35.8232 55.9599 35.9882 55.927 36.1422 55.8632C36.2962 55.7994 36.4362 55.7059 36.554 55.588L37.588 54.554C37.8258 54.316 37.9594 53.9934 37.9594 53.657C37.9594 53.3206 37.8258 52.998 37.588 52.76C37.178 52.35 37.108 51.72 37.339 51.188C37.376 51.105 37.411 51.02 37.445 50.935C37.657 50.396 38.153 50 38.731 50C39.432 50 40 49.432 40 48.731V47.27C40 46.569 39.432 46.001 38.731 46.001C38.153 46.001 37.657 45.605 37.444 45.066C37.4105 44.9811 37.3755 44.8967 37.339 44.813C37.109 44.282 37.179 43.651 37.588 43.241C37.8258 43.003 37.9594 42.6804 37.9594 42.344C37.9594 42.0076 37.8258 41.685 37.588 41.447L36.554 40.413C36.316 40.1752 35.9934 40.0416 35.657 40.0416C35.3206 40.0416 34.998 40.1752 34.76 40.413C34.35 40.823 33.72 40.893 33.188 40.662C33.1043 40.6252 33.0199 40.5899 32.935 40.556C32.396 40.343 32 39.847 32 39.27V39.269Z" stroke="#F7155E" stroke-width="2"/>
<path d="M34 48C34 49.0609 33.5786 50.0783 32.8284 50.8284C32.0783 51.5786 31.0609 52 30 52C28.9391 52 27.9217 51.5786 27.1716 50.8284C26.4214 50.0783 26 49.0609 26 48C26 46.9391 26.4214 45.9217 27.1716 45.1716C27.9217 44.4214 28.9391 44 30 44C31.0609 44 32.0783 44.4214 32.8284 45.1716C33.5786 45.9217 34 46.9391 34 48V48Z" stroke="#F7155E" stroke-width="2"/>
</svg>