<svg xmlns="http://www.w3.org/2000/svg" width="60" height="70" viewBox="0 0 60 70" fill="none">
<rect width="60" height="50" rx="8" fill="#25DC8C"/>
<circle cx="30.5" cy="47.5" r="22.5" fill="#F5F9FF"/>
<path d="M30.0027 48.0016C30.1341 48.0016 30.2641 47.9758 30.3855 47.9255C30.5069 47.8752 30.6171 47.8015 30.71 47.7087C30.8029 47.6158 30.8766 47.5055 30.9269 47.3841C30.9771 47.2628 31.003 47.1327 31.003 47.0013C31.003 46.8699 30.9771 46.7399 30.9269 46.6185C30.8766 46.4971 30.8029 46.3869 30.71 46.294C30.6171 46.2011 30.5069 46.1274 30.3855 46.0771C30.2641 46.0269 30.1341 46.001 30.0027 46.001C29.7374 46.001 29.4829 46.1064 29.2953 46.294C29.1077 46.4816 29.0023 46.736 29.0023 47.0013C29.0023 47.2666 29.1077 47.5211 29.2953 47.7087C29.4829 47.8963 29.7374 48.0016 30.0027 48.0016V48.0016Z" fill="#F7155E"/>
<path fill-rule="evenodd" clip-rule="evenodd" d="M25.0057 52.3385V59.0012H34.5129V55.3832H36.8981C37.047 55.3832 37.1892 55.3537 37.3187 55.3009L35.9964 54.272H33.4018V57.89H26.1163V51.8907L25.8052 51.5679C24.8941 50.6207 23.1112 48.4067 23.1112 45.6532C23.1112 44.7476 23.4529 43.3603 24.4813 42.2141C25.3885 41.2023 26.9108 40.289 29.4465 40.1345V44.0514C29.0081 44.1345 28.5937 44.3143 28.2336 44.5778C27.8734 44.8414 27.5766 45.1819 27.3647 45.5746C27.1528 45.9674 27.0312 46.4024 27.0088 46.8481C26.9863 47.2938 27.0636 47.7389 27.2349 48.1509C27.4062 48.563 27.6673 48.9316 27.9991 49.23C28.331 49.5284 28.7252 49.749 29.153 49.8757C29.5809 50.0025 30.0317 50.0322 30.4725 49.9627C30.9133 49.8932 31.333 49.7262 31.7011 49.4739L39.5182 55.5426C39.4701 55.8204 39.5172 56.1063 39.652 56.3539C39.7868 56.6015 40.0013 56.7962 40.2607 56.9065C40.5201 57.0169 40.8092 57.0363 41.0811 56.9616C41.3529 56.8869 41.5915 56.7225 41.7582 56.4952C41.9248 56.2678 42.0097 55.9908 41.9991 55.7091C41.9885 55.4274 41.883 55.1575 41.6997 54.9434C41.5164 54.7292 41.2661 54.5832 40.9894 54.5292C40.7127 54.4752 40.4259 54.5164 40.1755 54.6459L32.4895 48.6783C32.7676 48.2661 32.939 47.7913 32.9882 47.2965C33.0374 46.8017 32.9628 46.3024 32.7713 45.8435C32.5798 45.3846 32.2772 44.9805 31.8908 44.6675C31.5044 44.3545 31.0464 44.1424 30.5577 44.0503V40.1151C31.9706 40.1412 32.9495 40.3306 33.6901 40.6084C34.4746 40.9029 35.0563 41.319 35.6425 41.8624L35.7213 41.9357C36.2958 42.468 36.4669 42.6269 36.5642 42.8858L38.916 49.1473H36.8981V50.7518L38.0093 51.6157V50.2584H38.916C39.0955 50.2587 39.2725 50.2154 39.4316 50.1322C39.5908 50.049 39.7274 49.9285 39.8297 49.7809C39.932 49.6334 39.997 49.4632 40.0191 49.285C40.0412 49.1068 40.0198 48.9259 39.9566 48.7578L37.6042 42.4946C37.4103 41.9779 37.0353 41.6335 36.5631 41.2001C36.5079 41.1495 36.4529 41.0988 36.3981 41.0479C35.0841 39.8289 33.589 39 30.2216 39C23.6701 39 22 43.3753 22 45.6532C22 48.8572 24.0462 51.3429 25.0057 52.3385V52.3385ZM30.0021 48.8895C30.2502 48.8895 30.4958 48.8407 30.725 48.7458C30.9542 48.6509 31.1625 48.5118 31.3379 48.3364C31.5134 48.161 31.6525 47.9528 31.7475 47.7236C31.8425 47.4944 31.8914 47.2488 31.8914 47.0007C31.8914 46.7527 31.8426 46.507 31.7477 46.2778C31.6528 46.0486 31.5137 45.8404 31.3383 45.6649C31.1629 45.4895 30.9547 45.3503 30.7256 45.2554C30.4964 45.1604 30.2508 45.1115 30.0027 45.1115C29.5017 45.1115 29.0212 45.3105 28.667 45.6647C28.3127 46.019 28.1137 46.4995 28.1137 47.0005C28.1137 47.5015 28.3127 47.9819 28.667 48.3362C29.0212 48.6904 29.5017 48.8895 30.0027 48.8895H30.0021Z" fill="#F7155E"/>
</svg>